<svg width="171" height="46" viewBox="0 0 171 46" fill="none" xmlns="http://www.w3.org/2000/svg">
<path fill-rule="evenodd" clip-rule="evenodd" d="M66.6052 16.2756H58.8804V21.2311H68.1675H68.6883V21.7351C68.6883 22.407 68.4279 22.9949 67.994 23.4149C67.56 23.8348 66.9524 24.0868 66.2581 24.0868H58.9672V30.1342C58.9672 30.8061 58.7068 31.394 58.2728 31.814C57.8388 32.2339 57.2313 32.4859 56.5369 32.4859H56.0161V31.982V15.7717C56.0161 15.0998 56.2765 14.5118 56.7105 14.0919C57.1445 13.6719 57.752 13.42 58.4464 13.42H68.6015H69.1223V13.9239C69.1223 14.5958 68.8619 15.1838 68.4279 15.6037C67.9072 16.0237 67.2128 16.2756 66.6052 16.2756ZM76.066 24.1708V29.2942H87.2627H87.7834V29.7982C87.7834 30.4701 87.5231 31.0581 87.0891 31.478C86.6551 31.898 86.0475 32.1499 85.3532 32.1499H73.6357H73.1149V31.646V15.7717C73.1149 15.0998 73.3753 14.5118 73.8093 14.0919C74.2433 13.6719 74.8508 13.42 75.5452 13.42H86.7419H87.2627V13.9239C87.2627 14.5958 87.0023 15.1838 86.5683 15.6037C86.1343 16.0237 85.5267 16.2756 84.8324 16.2756H76.066V21.2311H86.3947H86.9155V21.7351C86.9155 22.407 86.6551 22.9949 86.2211 23.4149C85.7871 23.8348 85.1796 24.0868 84.4852 24.0868H76.066V24.1708ZM102.886 23.9188C102.626 24.0028 102.452 24.0868 102.192 24.0868L107.226 31.394L107.486 31.814L107.052 32.066C106.445 32.4019 105.837 32.5699 105.229 32.4019C104.622 32.3179 104.014 31.898 103.667 31.394L98.8065 24.3388H94.2063V30.1342C94.2063 30.8061 93.9459 31.394 93.512 31.814C93.078 32.2339 92.4704 32.4859 91.7761 32.4859H91.2553V31.982V15.7717C91.2553 15.0998 91.5157 14.5118 91.9497 14.0919C92.3836 13.6719 92.9912 13.42 93.6856 13.42H100.456C101.237 13.42 101.931 13.5039 102.626 13.7559C103.32 13.9239 103.927 14.2599 104.448 14.6798C105.143 15.1838 105.663 15.7717 105.924 16.4436C106.271 17.1156 106.445 17.9555 106.445 18.7954C106.445 19.2993 106.358 19.7193 106.271 20.2232C106.184 20.6432 106.011 21.0631 105.837 21.3991C105.663 21.7351 105.49 22.071 105.229 22.407C104.969 22.743 104.709 22.9949 104.361 23.2469C103.927 23.4989 103.407 23.7508 102.886 23.9188ZM100.456 16.2756H94.2063V21.3991H100.456C100.803 21.3991 101.15 21.3991 101.584 21.3151C101.931 21.2311 102.365 21.0631 102.626 20.8951C102.886 20.7272 103.146 20.3912 103.233 20.0552C103.407 19.7193 103.494 19.2993 103.494 18.7114C103.494 17.8715 103.146 17.2836 102.712 16.9476C101.931 16.3597 100.629 16.2756 100.456 16.2756ZM109.83 14.1759C110.264 13.7559 110.871 13.504 111.566 13.504H125.106H125.626V14.0079C125.626 14.6798 125.366 15.2678 124.932 15.6877C124.498 16.1077 123.891 16.3596 123.196 16.3596H118.943V30.2182C118.943 30.8901 118.683 31.478 118.249 31.898C117.815 32.3179 117.207 32.5699 116.513 32.5699H115.992V32.066V16.2756H109.569H109.048V15.7717C109.135 15.1838 109.396 14.5958 109.83 14.1759ZM132.397 13.504V30.1342C132.397 30.8061 132.136 31.394 131.702 31.814C131.268 32.2339 130.661 32.4859 129.966 32.4859H129.445V31.982V15.3517C129.445 14.6798 129.706 14.0919 130.14 13.6719C130.574 13.252 131.181 13 131.876 13H132.397V13.504ZM148.193 16.2756H140.469V21.2311H149.756H150.277V21.7351C150.277 22.407 150.016 22.9949 149.582 23.4149C149.148 23.8348 148.541 24.0868 147.846 24.0868H140.555V30.1342C140.555 30.8061 140.295 31.394 139.861 31.814C139.427 32.2339 138.819 32.4859 138.125 32.4859H137.604V31.982V15.7717C137.604 15.0998 137.865 14.5118 138.299 14.0919C138.733 13.6719 139.34 13.42 140.035 13.42H150.19H150.71V13.9239C150.71 14.5958 150.45 15.1838 150.016 15.6037C149.495 16.0237 148.888 16.2756 148.193 16.2756ZM162.602 13.504C162.775 13.6719 162.862 13.9239 162.862 14.0079C164.685 18.2914 170.326 31.646 170.326 31.646L170.5 32.066L170.066 32.2339C169.632 32.4019 168.851 32.4859 168.156 32.2339C167.636 32.066 167.202 31.646 166.855 30.8901C166.768 30.8061 166.421 29.9662 165.987 28.7903L165.119 26.6905H158.522C158.175 27.5304 157.828 28.3704 157.481 29.1263C157.047 30.1342 156.786 30.8061 156.699 30.8901C156.352 31.562 155.918 31.982 155.397 32.2339C154.703 32.5699 153.922 32.4019 153.488 32.2339L153.054 32.066L153.228 31.646C153.228 31.646 158.869 18.2914 160.779 14.0079C160.866 13.9239 160.952 13.6719 161.039 13.504C161.213 13.252 161.473 13 161.82 13C162.081 13 162.341 13.252 162.602 13.504ZM161.734 18.8794C161.213 20.0552 160.432 21.987 159.65 23.9188H163.903C163.036 21.903 162.254 19.9713 161.734 18.8794Z" fill="white"/>
<path fill-rule="evenodd" clip-rule="evenodd" d="M21.4014 0.236415L30.7064 5.55555C30.7645 5.55555 30.7645 5.61275 30.8227 5.61275L40.0695 10.8747C40.6511 11.2178 41 11.7898 41 12.4189V23V33.5811C41 34.3246 40.5348 34.9537 39.9532 35.2397C33.2071 39.0718 27.217 42.4463 21.4596 45.7636C20.878 46.1068 20.1801 46.0496 19.5986 45.7636L10.2936 40.4445C10.2355 40.4445 10.2355 40.3873 10.1773 40.3873L0.9305 35.1253C0.34894 34.7822 0 34.2102 0 33.5811V23V12.4189C0 11.6754 0.465241 11.0463 1.0468 10.7603L10.2355 5.55555L19.5404 0.236415C20.122 -0.106755 20.878 -0.0495601 21.4014 0.236415ZM20.4128 10.1311C18.7844 11.3894 17.0397 14.5924 17.9702 16.7658C18.3773 17.7381 19.3078 18.4244 20.4128 18.4244C21.5177 18.4244 22.4482 17.7381 22.8553 16.7086C23.7858 14.5924 21.983 11.3894 20.4128 10.1311ZM25.7631 39.0718C29.2525 37.1272 33.8468 34.4962 37.278 32.5516V23V13.4484L28.9617 8.70128C28.9035 8.70128 28.9035 8.64408 28.8454 8.64408L20.4128 3.83971L11.9801 8.64408L3.54752 13.3912V22.9428V32.4944L11.8638 37.2415C11.922 37.2415 11.922 37.2987 11.9801 37.2987L15.0624 39.0718V32.094C14.6553 31.4077 14.0156 30.7785 12.9688 30.5497C12.7943 31.522 11.9801 32.3228 10.5844 31.8652C7.6766 31.0073 5.52483 26.4317 6.80426 24.1439C6.80426 24.1439 6.97872 26.2029 9.59574 26.2601C12.2128 26.3173 14.0156 28.1476 13.0851 29.0627C12.1546 29.9778 8.25815 27.5184 7.21134 26.3173C7.21134 26.3173 8.7234 28.6051 12.4454 29.6918C13.6085 30.035 14.4227 30.4353 15.0624 30.8357V24.2583L7.44396 19.9115C6.57162 19.3967 6.28086 18.31 6.80426 17.4521C7.32767 16.5942 8.43262 16.3082 9.30496 16.8229L17.8539 21.6845C18.4355 22.0277 18.7844 22.5996 18.7844 23.2288V41.1308L20.4128 42.0459L22.0411 41.1308V23.2288C22.0411 22.5996 22.3901 22.0277 22.9716 21.6845L31.5206 16.8229C32.3929 16.3082 33.4979 16.5942 34.0213 17.4521C34.5447 18.31 34.2539 19.3967 33.3816 19.9115L25.7631 24.2583V30.8357C26.4028 30.4353 27.217 29.9778 28.3801 29.6918C32.044 28.6051 33.6142 26.3173 33.6142 26.3173C32.5674 27.4612 28.6128 29.9778 27.7404 29.0627C26.8099 28.1476 28.6128 26.3173 31.2298 26.2601C33.8468 26.2029 34.0213 24.1439 34.0213 24.1439C35.3007 26.4317 33.1489 31.0073 30.2411 31.8652C28.8454 32.2656 28.0312 31.4648 27.8567 30.5497C26.8099 30.7785 26.1702 31.4649 25.7631 32.094V38.2139V39.0718Z" fill="white"/>
</svg>
