<?xml version="1.0" encoding="UTF-8"?>
<svg width="234px" height="234px" viewBox="0 0 234 234" version="1.1" xmlns="http://www.w3.org/2000/svg" xmlns:xlink="http://www.w3.org/1999/xlink">
    <!-- Generator: Sketch 58 (84663) - https://sketch.com -->
    <title>Group 9</title>
    <desc>Created with Sketch.</desc>
    <defs>
        <circle id="path-1" cx="117" cy="117" r="117"></circle>
    </defs>
    <g id="Page-1" stroke="none" stroke-width="1" fill="none" fill-rule="evenodd">
        <g id="Group-9">
            <mask id="mask-2" fill="white">
                <use xlink:href="#path-1"></use>
            </mask>
            <use id="Mask" fill="#E9E9E9" xlink:href="#path-1"></use>
            <g id="Group-3" mask="url(#mask-2)" fill="#D8D8D8">
                <g transform="translate(40.000000, 49.000000)" id="Fill-1">
                    <path d="M137.307739,142.963333 L105.325957,127.046667 C102.309565,125.54 100.434783,122.52 100.434783,119.16 L100.434783,107.893333 C101.201435,106.956667 102.008261,105.893333 102.84187,104.72 C106.989826,98.8866667 110.314217,92.3933333 112.731348,85.3933333 C117.45513,83.2366667 120.521739,78.5866667 120.521739,73.3333333 L120.521739,60 C120.521739,56.79 119.316522,53.68 117.173913,51.25 L117.173913,33.52 C117.361391,31.6866667 118.101261,20.7733333 110.173609,11.77 C103.293826,3.96 92.1388696,0 77,0 C61.8644783,0 50.7061739,3.96 43.8297391,11.7666667 C35.902087,20.77 36.6386087,31.6866667 36.826087,33.52 L36.826087,51.25 C34.6834783,53.68 33.4782609,56.79 33.4782609,60 L33.4782609,73.3333333 C33.4782609,77.39 35.3329565,81.1733333 38.4899565,83.6966667 C41.5565652,95.7866667 47.9743478,104.896667 50.2173913,107.82 L50.2173913,118.853333 C50.2173913,122.076667 48.4497391,125.036667 45.6074348,126.583333 L15.7414783,142.803333 C6.02943478,148.08 0,158.193333 0,169.206667 L0,180 C0,195.82 50.3680435,200 77,200 C103.631957,200 154,195.82 154,180 L154,169.856667 C154,158.396667 147.602304,148.09 137.307739,142.963333"></path>
                </g>
            </g>
        </g>
    </g>
</svg>